<svg data-v-423bf9ae="" xmlns="http://www.w3.org/2000/svg" viewBox="0 0 488 90" class="iconLeft"><!----><!----><!----><g data-v-423bf9ae="" id="ffdeecaf-1537-4fc7-ad9a-0236d4e05fa3" fill="#232323" transform="matrix(5.5147058243466915,0,0,5.5147058243466915,101.42105963611547,16.323528735179803)"><path d="M6.97 7.87C6.97 6.69 6.13 5.64 4.49 5.54C5.87 5.31 6.43 4.30 6.43 3.30C6.43 1.71 5.22 1.09 3.25 1.09L1.26 1.09L1.26 10.50L3.64 10.50C5.42 10.50 6.97 9.77 6.97 7.87ZM6.45 7.85C6.45 9.38 5.33 10.07 3.65 10.07L1.76 10.07L1.76 5.78L3.47 5.78C5.47 5.78 6.45 6.51 6.45 7.85ZM5.92 3.33C5.92 4.42 5.26 5.35 3.40 5.35L1.76 5.35L1.76 1.51L3.44 1.51C5.07 1.51 5.92 2.20 5.92 3.33ZM9.14 10.50L9.62 10.50L9.62-0.24L9.14-0.24ZM18.33 10.22L17.77 10.22C17.32 10.22 17.21 10.00 17.21 9.60L17.21 5.54C17.21 3.93 16.35 3.14 14.71 3.14C13.16 3.14 12.35 3.86 12.18 5.05L12.67 5.10C12.85 4.00 13.50 3.54 14.70 3.54C16.09 3.54 16.72 4.21 16.72 5.60L16.72 6.33L15.01 6.33C13.03 6.33 11.86 7.07 11.86 8.57C11.86 9.79 12.64 10.64 14.13 10.64C15.47 10.64 16.35 10.01 16.72 8.83L16.72 9.63C16.72 10.22 16.93 10.64 17.67 10.64C17.96 10.64 18.20 10.63 18.33 10.61ZM14.13 10.23C12.98 10.23 12.33 9.56 12.33 8.55C12.33 7.25 13.37 6.72 15.13 6.72L16.72 6.72L16.72 7.03C16.72 8.82 15.93 10.23 14.13 10.23ZM22.57 10.64C24.25 10.64 24.99 9.46 25.17 8.41L24.67 8.37C24.44 9.38 23.87 10.21 22.57 10.21C20.71 10.21 20.12 8.74 20.12 6.82C20.12 4.58 21.03 3.57 22.53 3.57C23.65 3.57 24.39 4.09 24.61 5.19L25.13 5.15C24.89 3.98 24.08 3.14 22.53 3.14C20.86 3.14 19.59 4.21 19.59 6.83C19.59 8.99 20.37 10.64 22.57 10.64ZM31.86 10.50L32.44 10.50L29.25 6.59L32.34 3.28L31.72 3.28L27.89 7.38L27.89-0.24L27.41-0.24L27.41 10.50L27.89 10.50L27.89 7.94L28.92 6.93ZM36.62 10.50L37.09 10.50L37.09 2.58C37.09 2.27 37.07 1.55 37.07 1.54C37.09 1.60 37.28 2.18 37.42 2.51L40.63 10.50L41.13 10.50L44.25 2.44C44.39 2.06 44.55 1.57 44.56 1.53L44.56 2.42L44.55 10.50L45.01 10.50L45.01 1.09L44.31 1.09L41.43 8.54C41.15 9.28 40.88 10.02 40.88 10.02C40.88 10.02 40.61 9.30 40.31 8.53L37.31 1.09L36.62 1.09ZM47.70 3.28L47.22 3.28L47.22 8.20C47.22 9.95 47.96 10.64 49.48 10.64C51.02 10.64 51.73 9.73 52.08 8.82L52.11 10.50L52.57 10.50L52.54 9.00L52.54 3.28L52.07 3.28L52.07 7.50C52.07 9.21 51.02 10.25 49.57 10.25C48.36 10.25 47.70 9.70 47.70 8.13ZM59.58 8.58C59.58 7.10 58.32 6.83 57.09 6.54C55.80 6.23 55.01 5.87 55.01 4.89C55.01 4.02 55.73 3.56 56.91 3.56C58.07 3.56 58.70 3.99 58.95 4.87L59.43 4.83C59.12 3.75 58.44 3.14 56.92 3.14C55.27 3.14 54.53 3.89 54.53 4.93C54.53 6.29 55.64 6.68 56.81 6.94C58.21 7.27 59.12 7.55 59.12 8.61C59.12 9.70 58.35 10.23 56.97 10.23C55.68 10.23 54.99 9.72 54.71 8.76L54.26 8.86C54.56 10.09 55.54 10.64 56.94 10.64C58.65 10.64 59.58 9.91 59.58 8.58ZM61.75 10.50L62.24 10.50L62.24 3.28L61.75 3.28ZM61.68 1.39L62.31 1.39L62.31 0.60L61.68 0.60ZM67.33 10.64C69.01 10.64 69.75 9.46 69.93 8.41L69.43 8.37C69.20 9.38 68.63 10.21 67.33 10.21C65.46 10.21 64.88 8.74 64.88 6.82C64.88 4.58 65.79 3.57 67.28 3.57C68.40 3.57 69.15 4.09 69.37 5.19L69.89 5.15C69.65 3.98 68.84 3.14 67.28 3.14C65.62 3.14 64.34 4.21 64.34 6.83C64.34 8.99 65.13 10.64 67.33 10.64Z"></path></g><!----><g data-v-423bf9ae="" id="894cffbf-4205-4e10-a526-6b0795a87055" transform="matrix(1.3499793494522427,0,0,1.3499793494522427,-23.229421602996496,-21.832812038878572)" stroke="none" fill="#232323"><path d="M55.44 50.37a4 4 0 012.9-1.63l4.87-.32c.4 0 .73-.56.73-1.21S63.61 46 63.21 46h-.11l-4.91-.32a7.24 7.24 0 00-5.62 2.47A7.5 7.5 0 0051 51a7.31 7.31 0 00-.27 1.62l-.07 1.27-.19 4.87-.18 6.8-4.68-.3-2.44-.15a9.33 9.33 0 00-3 .3 9 9 0 00-6.46 9.65 9.34 9.34 0 008.77 8.26h2.55a10.59 10.59 0 003.06-.29 9.39 9.39 0 005.4-3.69 9.54 9.54 0 001.43-3 10.27 10.27 0 00.3-1.64v-1.47l-.07-4.88-.15-9.71-.2-4.87a8.93 8.93 0 010-1.92 3.67 3.67 0 01.64-1.48zm-5.28 23a4.55 4.55 0 01-.89 3 4.39 4.39 0 01-2.49 1.68 6.54 6.54 0 01-1.81.16h-2.3a4.69 4.69 0 01-4.44-3.9 5.05 5.05 0 013.2-5.51 5.92 5.92 0 011.87-.36l2.44-.14 4.5-.3v.44z"></path><path d="M65.22 62.45h.2A15.61 15.61 0 0082.69 48a16 16 0 00-4.2-12 16.24 16.24 0 00-9.33-5 15.35 15.35 0 00-.29-2.43A14.63 14.63 0 0067.06 24a15 15 0 00-7.44-6.31 14.2 14.2 0 00-4.85-1 14.65 14.65 0 00-4.93.56 13 13 0 00-6.9 5.05 30.69 30.69 0 00-5.47.28 14.86 14.86 0 00-12.17 15.1 13.28 13.28 0 00-6.09 5.18 13 13 0 00-1.64 9.6 12.83 12.83 0 005.37 7.9 12.41 12.41 0 004.41 1.85 17.44 17.44 0 004.56.21 1.21 1.21 0 100-2.41h-.2a13.62 13.62 0 01-3.86-.5 9.71 9.71 0 01-6.75-7.8 9.22 9.22 0 017.13-10.38 2.18 2.18 0 001.7-2.45 10.18 10.18 0 018.43-11.38 51.16 51.16 0 016-.12 2.65 2.65 0 002.19-1.23 8.42 8.42 0 014.78-4 10.44 10.44 0 016.44.3 10.13 10.13 0 015 4.12 9.83 9.83 0 011.26 3 15.33 15.33 0 01.29 3.58v.11a2.38 2.38 0 002.44 2.33 11.74 11.74 0 018.52 3.49 12 12 0 013.45 8.72 12.25 12.25 0 01-4 8.76A13.16 13.16 0 0165.22 60a1.24 1.24 0 100 2.48z"></path></g><!----></svg>