<svg data-v-423bf9ae="" xmlns="http://www.w3.org/2000/svg" viewBox="0 0 330 112" class="iconLeft"><!----><!----><!----><g data-v-423bf9ae="" id="dcc2af32-898a-45f2-94d7-8ab314f5c628" fill="white" transform="matrix(5.4446458718365625,0,0,5.4446458718365625,123.86002574888249,18.118760610128874)"><path d="M5.25 1.40Q6.02 1.40 6.68 1.74Q7.34 2.09 7.72 2.69Q8.11 3.29 8.11 4.05L8.11 4.05Q8.11 4.83 7.69 5.45Q7.27 6.08 6.57 6.38L6.57 6.38Q7.55 6.65 8.11 7.37Q8.68 8.09 8.68 9.16L8.68 9.16Q8.68 10.08 8.27 10.80Q7.85 11.52 7.12 11.93Q6.38 12.33 5.46 12.33L5.46 12.33L1.95 12.33Q1.69 12.33 1.55 12.23Q1.40 12.12 1.40 11.91L1.40 11.91L1.40 1.82Q1.40 1.62 1.52 1.51Q1.64 1.40 1.82 1.40L1.82 1.40L5.25 1.40ZM5.25 6.02Q6.15 6.02 6.71 5.47Q7.27 4.93 7.27 4.05L7.27 4.05Q7.27 3.19 6.71 2.72Q6.16 2.24 5.25 2.24L5.25 2.24L2.24 2.24L2.24 6.02L5.25 6.02ZM5.46 11.49Q6.15 11.49 6.69 11.19Q7.22 10.89 7.53 10.36Q7.84 9.83 7.84 9.16L7.84 9.16Q7.84 8.50 7.53 7.97Q7.22 7.45 6.69 7.15Q6.15 6.86 5.46 6.86L5.46 6.86L2.24 6.86L2.24 11.49L5.46 11.49ZM10.43 1.82Q10.43 1.62 10.55 1.51Q10.67 1.40 10.85 1.40L10.85 1.40Q11.05 1.40 11.16 1.51Q11.27 1.62 11.27 1.82L11.27 1.82L11.27 10.02Q11.27 10.67 11.54 11.08Q11.82 11.49 12.25 11.49L12.25 11.49L12.60 11.49Q12.75 11.49 12.85 11.61Q12.95 11.72 12.95 11.91L12.95 11.91Q12.95 12.10 12.84 12.21Q12.73 12.33 12.53 12.33L12.53 12.33L12.25 12.33Q11.45 12.33 10.94 11.69Q10.43 11.05 10.43 10.02L10.43 10.02L10.43 1.82ZM17.57 4.59Q18.66 4.59 19.56 5.10Q20.45 5.61 20.96 6.51Q21.48 7.41 21.48 8.51L21.48 8.51L21.48 11.91Q21.48 12.10 21.36 12.21Q21.25 12.33 21.06 12.33L21.06 12.33Q20.87 12.33 20.76 12.21Q20.64 12.10 20.64 11.91L20.64 11.91L20.64 10.82Q20.17 11.56 19.37 11.99Q18.56 12.42 17.57 12.42L17.57 12.42Q16.46 12.42 15.57 11.91Q14.67 11.40 14.16 10.50Q13.65 9.60 13.65 8.51L13.65 8.51Q13.65 7.41 14.16 6.51Q14.67 5.61 15.57 5.10Q16.46 4.59 17.57 4.59L17.57 4.59ZM17.57 11.63Q18.44 11.63 19.14 11.23Q19.84 10.82 20.24 10.11Q20.64 9.39 20.64 8.51L20.64 8.51Q20.64 7.63 20.24 6.92Q19.84 6.20 19.14 5.79Q18.44 5.38 17.57 5.38L17.57 5.38Q16.70 5.38 16.00 5.79Q15.30 6.20 14.90 6.92Q14.49 7.63 14.49 8.51L14.49 8.51Q14.49 9.39 14.90 10.11Q15.30 10.82 16.00 11.23Q16.70 11.63 17.57 11.63L17.57 11.63ZM26.75 4.61Q27.65 4.61 28.39 4.96Q29.13 5.31 29.68 5.99L29.68 5.99Q29.78 6.13 29.78 6.23L29.78 6.23Q29.78 6.43 29.58 6.54L29.58 6.54Q29.48 6.62 29.36 6.62L29.36 6.62Q29.16 6.62 29.04 6.45L29.04 6.45Q28.14 5.39 26.75 5.39L26.75 5.39Q25.94 5.39 25.31 5.79Q24.68 6.19 24.34 6.90Q24.00 7.62 24.00 8.51L24.00 8.51Q24.00 9.39 24.37 10.11Q24.75 10.82 25.42 11.23Q26.10 11.63 26.96 11.63L26.96 11.63Q28.20 11.63 28.94 10.95L28.94 10.95Q29.06 10.82 29.23 10.82L29.23 10.82Q29.39 10.82 29.48 10.92L29.48 10.92Q29.62 11.05 29.62 11.23L29.62 11.23Q29.62 11.38 29.51 11.48L29.51 11.48Q29.02 11.93 28.36 12.17Q27.71 12.42 26.96 12.42L26.96 12.42Q25.89 12.42 25.02 11.91Q24.15 11.40 23.65 10.50Q23.16 9.60 23.16 8.51L23.16 8.51Q23.16 7.41 23.62 6.52Q24.08 5.63 24.91 5.12Q25.73 4.61 26.75 4.61L26.75 4.61ZM37.66 11.72Q37.76 11.83 37.76 11.97L37.76 11.97Q37.76 12.12 37.60 12.26L37.60 12.26Q37.46 12.38 37.35 12.38L37.35 12.38Q37.18 12.38 37.06 12.21L37.06 12.21L34.02 8.50L32.72 9.69L32.72 11.91Q32.72 12.10 32.61 12.21Q32.49 12.33 32.30 12.33L32.30 12.33Q32.12 12.33 32.00 12.21Q31.88 12.10 31.88 11.91L31.88 11.91L31.88 1.82Q31.88 1.62 32.00 1.51Q32.12 1.40 32.30 1.40L32.30 1.40Q32.49 1.40 32.61 1.51Q32.72 1.62 32.72 1.82L32.72 1.82L32.72 8.67L37.06 4.72Q37.20 4.61 37.32 4.61L37.32 4.61Q37.46 4.61 37.59 4.75L37.59 4.75Q37.72 4.87 37.72 5.01L37.72 5.01Q37.72 5.15 37.58 5.28L37.58 5.28L34.61 7.98L37.66 11.72Z"></path></g><!----><g data-v-423bf9ae="" id="accf3dfa-1a56-4607-a335-d63a202c1227" transform="matrix(1.1129666646321614,0,0,1.1129666646321614,0.2682233543331165,0.2682233543331165)" stroke="none" fill="white"><path d="M50 100.083C22.383 100.083-.084 77.615-.084 50-.084 22.383 22.383-.084 50-.084c27.616 0 50.083 22.468 50.083 50.084 0 27.615-22.468 50.083-50.083 50.083z"></path></g><!----></svg>