<svg data-v-423bf9ae="" xmlns="http://www.w3.org/2000/svg" viewBox="0 0 570.3158408717105 163" class="iconAbove"><!----><!----><!----><g data-v-423bf9ae="" id="e76ed37a-8ea5-46ff-b4ad-79f5c45e5496" fill="black" transform="matrix(4.2105263157894735,0,0,4.2105263157894735,-5.894737889892156,97.10526170856075)"><path d="M5.25 1.40Q6.02 1.40 6.68 1.74Q7.34 2.09 7.72 2.69Q8.11 3.29 8.11 4.05L8.11 4.05Q8.11 4.83 7.69 5.45Q7.27 6.08 6.57 6.38L6.57 6.38Q7.55 6.65 8.11 7.37Q8.68 8.09 8.68 9.16L8.68 9.16Q8.68 10.08 8.27 10.80Q7.85 11.52 7.12 11.93Q6.38 12.33 5.46 12.33L5.46 12.33L1.95 12.33Q1.69 12.33 1.55 12.23Q1.40 12.12 1.40 11.91L1.40 11.91L1.40 1.82Q1.40 1.62 1.52 1.51Q1.64 1.40 1.82 1.40L1.82 1.40L5.25 1.40ZM5.25 6.02Q6.15 6.02 6.71 5.47Q7.27 4.93 7.27 4.05L7.27 4.05Q7.27 3.19 6.71 2.72Q6.16 2.24 5.25 2.24L5.25 2.24L2.24 2.24L2.24 6.02L5.25 6.02ZM5.46 11.49Q6.15 11.49 6.69 11.19Q7.22 10.89 7.53 10.36Q7.84 9.83 7.84 9.16L7.84 9.16Q7.84 8.50 7.53 7.97Q7.22 7.45 6.69 7.15Q6.15 6.86 5.46 6.86L5.46 6.86L2.24 6.86L2.24 11.49L5.46 11.49ZM10.43 1.82Q10.43 1.62 10.55 1.51Q10.67 1.40 10.85 1.40L10.85 1.40Q11.05 1.40 11.16 1.51Q11.27 1.62 11.27 1.82L11.27 1.82L11.27 10.02Q11.27 10.67 11.54 11.08Q11.82 11.49 12.25 11.49L12.25 11.49L12.60 11.49Q12.75 11.49 12.85 11.61Q12.95 11.72 12.95 11.91L12.95 11.91Q12.95 12.10 12.84 12.21Q12.73 12.33 12.53 12.33L12.53 12.33L12.25 12.33Q11.45 12.33 10.94 11.69Q10.43 11.05 10.43 10.02L10.43 10.02L10.43 1.82ZM17.57 4.59Q18.66 4.59 19.56 5.10Q20.45 5.61 20.96 6.51Q21.48 7.41 21.48 8.51L21.48 8.51L21.48 11.91Q21.48 12.10 21.36 12.21Q21.25 12.33 21.06 12.33L21.06 12.33Q20.87 12.33 20.76 12.21Q20.64 12.10 20.64 11.91L20.64 11.91L20.64 10.82Q20.17 11.56 19.37 11.99Q18.56 12.42 17.57 12.42L17.57 12.42Q16.46 12.42 15.57 11.91Q14.67 11.40 14.16 10.50Q13.65 9.60 13.65 8.51L13.65 8.51Q13.65 7.41 14.16 6.51Q14.67 5.61 15.57 5.10Q16.46 4.59 17.57 4.59L17.57 4.59ZM17.57 11.63Q18.44 11.63 19.14 11.23Q19.84 10.82 20.24 10.11Q20.64 9.39 20.64 8.51L20.64 8.51Q20.64 7.63 20.24 6.92Q19.84 6.20 19.14 5.79Q18.44 5.38 17.57 5.38L17.57 5.38Q16.70 5.38 16.00 5.79Q15.30 6.20 14.90 6.92Q14.49 7.63 14.49 8.51L14.49 8.51Q14.49 9.39 14.90 10.11Q15.30 10.82 16.00 11.23Q16.70 11.63 17.57 11.63L17.57 11.63ZM26.75 4.61Q27.65 4.61 28.39 4.96Q29.13 5.31 29.68 5.99L29.68 5.99Q29.78 6.13 29.78 6.23L29.78 6.23Q29.78 6.43 29.58 6.54L29.58 6.54Q29.48 6.62 29.36 6.62L29.36 6.62Q29.16 6.62 29.04 6.45L29.04 6.45Q28.14 5.39 26.75 5.39L26.75 5.39Q25.94 5.39 25.31 5.79Q24.68 6.19 24.34 6.90Q24.00 7.62 24.00 8.51L24.00 8.51Q24.00 9.39 24.37 10.11Q24.75 10.82 25.42 11.23Q26.10 11.63 26.96 11.63L26.96 11.63Q28.20 11.63 28.94 10.95L28.94 10.95Q29.06 10.82 29.23 10.82L29.23 10.82Q29.39 10.82 29.48 10.92L29.48 10.92Q29.62 11.05 29.62 11.23L29.62 11.23Q29.62 11.38 29.51 11.48L29.51 11.48Q29.02 11.93 28.36 12.17Q27.71 12.42 26.96 12.42L26.96 12.42Q25.89 12.42 25.02 11.91Q24.15 11.40 23.65 10.50Q23.16 9.60 23.16 8.51L23.16 8.51Q23.16 7.41 23.62 6.52Q24.08 5.63 24.91 5.12Q25.73 4.61 26.75 4.61L26.75 4.61ZM37.66 11.72Q37.76 11.83 37.76 11.97L37.76 11.97Q37.76 12.12 37.60 12.26L37.60 12.26Q37.46 12.38 37.35 12.38L37.35 12.38Q37.18 12.38 37.06 12.21L37.06 12.21L34.02 8.50L32.72 9.69L32.72 11.91Q32.72 12.10 32.61 12.21Q32.49 12.33 32.30 12.33L32.30 12.33Q32.12 12.33 32.00 12.21Q31.88 12.10 31.88 11.91L31.88 11.91L31.88 1.82Q31.88 1.62 32.00 1.51Q32.12 1.40 32.30 1.40L32.30 1.40Q32.49 1.40 32.61 1.51Q32.72 1.62 32.72 1.82L32.72 1.82L32.72 8.67L37.06 4.72Q37.20 4.61 37.32 4.61L37.32 4.61Q37.46 4.61 37.59 4.75L37.59 4.75Q37.72 4.87 37.72 5.01L37.72 5.01Q37.72 5.15 37.58 5.28L37.58 5.28L34.61 7.98L37.66 11.72ZM45.00 11.91Q45.00 12.10 44.88 12.21Q44.77 12.33 44.58 12.33L44.58 12.33Q44.39 12.33 44.27 12.21Q44.16 12.10 44.16 11.91L44.16 11.91L44.16 1.82Q44.16 1.62 44.27 1.51Q44.39 1.40 44.58 1.40L44.58 1.40L47.38 1.40Q48.38 1.40 49.18 1.85Q49.98 2.30 50.43 3.09Q50.88 3.89 50.88 4.90L50.88 4.90Q50.88 5.92 50.43 6.72Q49.98 7.52 49.18 7.97Q48.38 8.41 47.38 8.41L47.38 8.41L45.00 8.41L45.00 11.91ZM47.38 7.57Q48.15 7.57 48.75 7.23Q49.35 6.89 49.69 6.28Q50.04 5.67 50.04 4.90L50.04 4.90Q50.04 4.13 49.69 3.53Q49.35 2.93 48.75 2.58Q48.15 2.24 47.38 2.24L47.38 2.24L45.00 2.24L45.00 7.57L47.38 7.57ZM55.99 4.58Q57.01 4.58 57.81 5.00Q58.62 5.42 59.07 6.22Q59.53 7.03 59.53 8.15L59.53 8.15L59.53 11.91Q59.53 12.10 59.41 12.21Q59.29 12.33 59.11 12.33L59.11 12.33Q58.93 12.33 58.81 12.21Q58.69 12.10 58.69 11.91L58.69 11.91L58.69 8.15Q58.69 6.82 57.94 6.12Q57.19 5.42 55.99 5.42L55.99 5.42Q55.24 5.42 54.63 5.70Q54.03 5.99 53.68 6.50Q53.33 7.01 53.33 7.63L53.33 7.63L53.33 11.91Q53.33 12.10 53.21 12.21Q53.10 12.33 52.91 12.33L52.91 12.33Q52.72 12.33 52.60 12.21Q52.49 12.10 52.49 11.91L52.49 11.91L52.49 1.82Q52.49 1.62 52.60 1.51Q52.72 1.40 52.91 1.40L52.91 1.40Q53.10 1.40 53.21 1.51Q53.33 1.62 53.33 1.82L53.33 1.82L53.33 5.82Q53.80 5.24 54.49 4.91Q55.17 4.58 55.99 4.58L55.99 4.58ZM65.41 4.59Q66.50 4.59 67.40 5.10Q68.29 5.61 68.80 6.51Q69.31 7.41 69.31 8.51L69.31 8.51Q69.31 9.60 68.80 10.50Q68.29 11.40 67.40 11.91Q66.50 12.42 65.41 12.42L65.41 12.42Q64.30 12.42 63.41 11.91Q62.51 11.40 62.00 10.50Q61.49 9.60 61.49 8.51L61.49 8.51Q61.49 7.41 62.00 6.51Q62.51 5.61 63.41 5.10Q64.30 4.59 65.41 4.59L65.41 4.59ZM65.41 5.38Q64.54 5.38 63.84 5.79Q63.14 6.20 62.73 6.92Q62.33 7.63 62.33 8.51L62.33 8.51Q62.33 9.39 62.73 10.11Q63.14 10.82 63.84 11.23Q64.54 11.63 65.41 11.63L65.41 11.63Q66.28 11.63 66.98 11.23Q67.68 10.82 68.08 10.11Q68.47 9.39 68.47 8.51L68.47 8.51Q68.47 7.63 68.08 6.92Q67.68 6.20 66.98 5.79Q66.28 5.38 65.41 5.38L65.41 5.38ZM74.87 11.48Q75.07 11.48 75.19 11.60Q75.31 11.72 75.31 11.91L75.31 11.91Q75.31 12.10 75.19 12.21Q75.07 12.33 74.87 12.33L74.87 12.33L74.55 12.33Q73.78 12.33 73.18 11.98Q72.58 11.63 72.24 11.03Q71.90 10.42 71.90 9.65L71.90 9.65L71.90 5.71L70.81 5.71Q70.64 5.71 70.54 5.61Q70.43 5.50 70.43 5.33L70.43 5.33Q70.43 5.17 70.54 5.06Q70.64 4.96 70.81 4.96L70.81 4.96L71.90 4.96L71.90 2.67Q71.90 2.48 72.02 2.36Q72.14 2.24 72.32 2.24L72.32 2.24Q72.52 2.24 72.64 2.36Q72.76 2.48 72.76 2.67L72.76 2.67L72.76 4.96L74.61 4.96Q74.77 4.96 74.88 5.06Q74.98 5.17 74.98 5.33L74.98 5.33Q74.98 5.50 74.88 5.61Q74.77 5.71 74.61 5.71L74.61 5.71L72.76 5.71L72.76 9.65Q72.76 10.46 73.26 10.97Q73.77 11.48 74.56 11.48L74.56 11.48L74.87 11.48ZM80.56 4.59Q81.65 4.59 82.54 5.10Q83.44 5.61 83.95 6.51Q84.46 7.41 84.46 8.51L84.46 8.51Q84.46 9.60 83.95 10.50Q83.44 11.40 82.54 11.91Q81.65 12.42 80.56 12.42L80.56 12.42Q79.45 12.42 78.55 11.91Q77.66 11.40 77.15 10.50Q76.64 9.60 76.64 8.51L76.64 8.51Q76.64 7.41 77.15 6.51Q77.66 5.61 78.55 5.10Q79.45 4.59 80.56 4.59L80.56 4.59ZM80.56 5.38Q79.69 5.38 78.99 5.79Q78.29 6.20 77.88 6.92Q77.48 7.63 77.48 8.51L77.48 8.51Q77.48 9.39 77.88 10.11Q78.29 10.82 78.99 11.23Q79.69 11.63 80.56 11.63L80.56 11.63Q81.42 11.63 82.12 11.23Q82.82 10.82 83.22 10.11Q83.62 9.39 83.62 8.51L83.62 8.51Q83.62 7.63 83.22 6.92Q82.82 6.20 82.12 5.79Q81.42 5.38 80.56 5.38L80.56 5.38ZM90.06 4.59Q91.20 4.59 92.08 5.10Q92.97 5.60 93.47 6.49Q93.97 7.38 93.97 8.51L93.97 8.51L93.97 11.26Q93.97 12.38 93.46 13.29Q92.96 14.21 92.08 14.73Q91.20 15.26 90.12 15.26L90.12 15.26Q89.01 15.26 88.18 14.85Q87.35 14.43 86.79 13.72L86.79 13.72Q86.67 13.58 86.67 13.44L86.67 13.44Q86.67 13.27 86.81 13.17L86.81 13.17Q86.93 13.09 87.07 13.09L87.07 13.09Q87.29 13.09 87.43 13.27L87.43 13.27Q87.89 13.83 88.57 14.15Q89.25 14.48 90.12 14.48L90.12 14.48Q90.97 14.48 91.66 14.06Q92.34 13.64 92.74 12.90Q93.13 12.17 93.13 11.26L93.13 11.26L93.13 10.64Q92.72 11.47 91.92 11.94Q91.11 12.42 90.06 12.42L90.06 12.42Q88.93 12.42 88.04 11.92Q87.15 11.42 86.65 10.54Q86.14 9.65 86.14 8.51L86.14 8.51Q86.14 7.39 86.66 6.50Q87.18 5.60 88.07 5.10Q88.97 4.59 90.06 4.59L90.06 4.59ZM90.06 11.63Q90.94 11.63 91.64 11.23Q92.34 10.84 92.74 10.13Q93.13 9.42 93.13 8.51L93.13 8.51Q93.13 7.60 92.74 6.89Q92.34 6.17 91.64 5.77Q90.94 5.38 90.06 5.38L90.06 5.38Q89.17 5.38 88.47 5.77Q87.77 6.17 87.37 6.89Q86.98 7.60 86.98 8.51L86.98 8.51Q86.98 9.42 87.37 10.13Q87.77 10.84 88.47 11.23Q89.17 11.63 90.06 11.63L90.06 11.63ZM99.32 4.59Q100.38 4.59 100.38 5.05L100.38 5.05Q100.38 5.12 100.37 5.17L100.37 5.17Q100.32 5.32 100.23 5.38Q100.14 5.45 99.99 5.45L99.99 5.45Q99.86 5.45 99.66 5.42Q99.46 5.39 99.32 5.39L99.32 5.39Q98.62 5.39 98.07 5.68Q97.52 5.98 97.22 6.50Q96.91 7.01 96.91 7.66L96.91 7.66L96.91 11.91Q96.91 12.10 96.80 12.21Q96.68 12.33 96.49 12.33L96.49 12.33Q96.31 12.33 96.19 12.21Q96.07 12.10 96.07 11.91L96.07 11.91L96.07 5.10Q96.07 4.90 96.19 4.79Q96.31 4.68 96.49 4.68L96.49 4.68Q96.68 4.68 96.80 4.79Q96.91 4.90 96.91 5.10L96.91 5.10L96.91 5.96Q97.31 5.32 97.94 4.96Q98.57 4.59 99.32 4.59L99.32 4.59ZM105.14 4.59Q106.23 4.59 107.13 5.10Q108.02 5.61 108.53 6.51Q109.05 7.41 109.05 8.51L109.05 8.51L109.05 11.91Q109.05 12.10 108.93 12.21Q108.82 12.33 108.63 12.33L108.63 12.33Q108.44 12.33 108.32 12.21Q108.21 12.10 108.21 11.91L108.21 11.91L108.21 10.82Q107.74 11.56 106.94 11.99Q106.13 12.42 105.14 12.42L105.14 12.42Q104.03 12.42 103.14 11.91Q102.24 11.40 101.73 10.50Q101.22 9.60 101.22 8.51L101.22 8.51Q101.22 7.41 101.73 6.51Q102.24 5.61 103.14 5.10Q104.03 4.59 105.14 4.59L105.14 4.59ZM105.14 11.63Q106.01 11.63 106.71 11.23Q107.41 10.82 107.81 10.11Q108.21 9.39 108.21 8.51L108.21 8.51Q108.21 7.63 107.81 6.92Q107.41 6.20 106.71 5.79Q106.01 5.38 105.14 5.38L105.14 5.38Q104.27 5.38 103.57 5.79Q102.87 6.20 102.47 6.92Q102.06 7.63 102.06 8.51L102.06 8.51Q102.06 9.39 102.47 10.11Q102.87 10.82 103.57 11.23Q104.27 11.63 105.14 11.63L105.14 11.63ZM115.05 4.59Q116.16 4.59 117.05 5.10Q117.95 5.61 118.46 6.51Q118.97 7.41 118.97 8.51L118.97 8.51Q118.97 9.60 118.46 10.50Q117.95 11.40 117.05 11.91Q116.16 12.42 115.05 12.42L115.05 12.42Q114.06 12.42 113.25 11.99Q112.45 11.56 111.99 10.82L111.99 10.82L111.99 15.19Q111.99 15.39 111.87 15.50Q111.76 15.61 111.57 15.61L111.57 15.61Q111.38 15.61 111.27 15.50Q111.15 15.39 111.15 15.19L111.15 15.19L111.15 8.46L111.15 8.43Q111.16 7.35 111.68 6.47Q112.20 5.59 113.08 5.09Q113.97 4.59 115.05 4.59L115.05 4.59ZM115.05 11.63Q115.92 11.63 116.62 11.23Q117.32 10.82 117.73 10.11Q118.13 9.39 118.13 8.51L118.13 8.51Q118.13 7.63 117.73 6.92Q117.32 6.20 116.62 5.79Q115.92 5.38 115.05 5.38L115.05 5.38Q114.18 5.38 113.48 5.79Q112.78 6.20 112.38 6.92Q111.99 7.63 111.99 8.51L111.99 8.51Q111.99 9.39 112.38 10.11Q112.78 10.82 113.48 11.23Q114.18 11.63 115.05 11.63L115.05 11.63ZM124.57 4.58Q125.59 4.58 126.40 5.00Q127.20 5.42 127.66 6.22Q128.11 7.03 128.11 8.15L128.11 8.15L128.11 11.91Q128.11 12.10 128.00 12.21Q127.88 12.33 127.69 12.33L127.69 12.33Q127.51 12.33 127.39 12.21Q127.27 12.10 127.27 11.91L127.27 11.91L127.27 8.15Q127.27 6.82 126.52 6.12Q125.78 5.42 124.57 5.42L124.57 5.42Q123.83 5.42 123.22 5.70Q122.61 5.99 122.26 6.50Q121.91 7.01 121.91 7.63L121.91 7.63L121.91 11.91Q121.91 12.10 121.80 12.21Q121.69 12.33 121.49 12.33L121.49 12.33Q121.31 12.33 121.19 12.21Q121.07 12.10 121.07 11.91L121.07 11.91L121.07 1.82Q121.07 1.62 121.19 1.51Q121.31 1.40 121.49 1.40L121.49 1.40Q121.69 1.40 121.80 1.51Q121.91 1.62 121.91 1.82L121.91 1.82L121.91 5.82Q122.39 5.24 123.07 4.91Q123.76 4.58 124.57 4.58L124.57 4.58ZM136.58 4.69Q136.85 4.80 136.85 5.01L136.85 5.01Q136.85 5.07 136.79 5.21L136.79 5.21L132.09 15.40Q131.96 15.65 131.77 15.65L131.77 15.65Q131.68 15.65 131.57 15.61L131.57 15.61Q131.31 15.50 131.31 15.29L131.31 15.29Q131.31 15.23 131.36 15.09L131.36 15.09L132.76 12.07Q132.75 12.05 132.71 11.97L132.71 11.97L129.64 5.25Q129.58 5.14 129.58 5.03L129.58 5.03Q129.58 4.82 129.82 4.70L129.82 4.70Q129.93 4.65 130.05 4.65L130.05 4.65Q130.26 4.65 130.37 4.89L130.37 4.89L133.21 11.10L136.07 4.90Q136.19 4.65 136.39 4.65L136.39 4.65Q136.49 4.65 136.58 4.69L136.58 4.69Z"></path></g><!----><g data-v-423bf9ae="" id="4a656d79-a1d5-41c1-b172-ef1d03607d4e" transform="matrix(1.6666355845278764,0,0,1.6666355845278764,202.66822077360618,-34.9993472750854)" stroke="none" fill="black"><path d="M86 31h-4v-2h-7v2h-4.5l-8-10h-10l-8 10H40v-4h-4v-1h-3v1h-4v4h-4v-2h-5v2h-6v9h28.251l-.5 2H14v32h31.702C41.029 70.438 38 64.829 38 58.5c0-8.624 5.604-15.927 13.364-18.5h-9.113l.479-1.917h29.542L72.751 40h-9.115C71.396 42.573 77 49.876 77 58.5c0 6.329-3.029 11.938-7.702 15.5H86V42H73.251l-.5-2H86v-9zM33.951 64.428l-.045.145A1.993 1.993 0 0132 66a2 2 0 01-2-2c0-.334.09-.645.235-.922l.001-.002c.052-.099.11-.193.177-.281l2.783-4.401a.983.983 0 01.791-.417 1 1 0 011 1c-.001.048-1.032 5.432-1.036 5.451z"></path><path d="M57.5 47.5c-6.065 0-11 4.935-11 11 0 6.066 4.935 11.001 11 11.001 6.065-.001 11-4.936 11-11.001s-4.935-11-11-11zm-4.96 6.04c-1.091 1.09-2.354 1.596-2.822 1.128-.467-.468.038-1.73 1.129-2.821 1.09-1.09 2.353-1.596 2.821-1.128.468.467-.038 1.73-1.128 2.821zM64 65a1 1 0 110-2 1 1 0 110 2z"></path><path d="M68.394 70.86l.137-.124a16.712 16.712 0 002.18-2.392c.093-.123.188-.244.276-.37.157-.222.305-.45.45-.681a14.9 14.9 0 00.337-.555c.123-.212.244-.423.357-.641.13-.248.248-.502.365-.757.08-.175.167-.345.24-.521.179-.427.337-.862.479-1.306.049-.152.088-.309.132-.463a15.574 15.574 0 00.518-2.544c.02-.158.042-.315.058-.476.047-.504.077-1.013.077-1.53s-.03-1.026-.077-1.531c-.016-.16-.038-.317-.058-.477a16.56 16.56 0 00-.263-1.554c-.074-.335-.16-.663-.255-.989-.044-.154-.083-.311-.132-.463-.142-.443-.301-.88-.479-1.306-.073-.177-.16-.346-.239-.52a16.083 16.083 0 00-.366-.76 17.633 17.633 0 00-.695-1.197 17.263 17.263 0 00-.448-.678c-.09-.128-.187-.25-.28-.375a16.544 16.544 0 00-2.173-2.384l-.143-.13a16.846 16.846 0 00-.879-.722l-.083-.062C64.663 43.259 61.229 42 57.5 42c-3.731 0-7.167 1.26-9.934 3.357l-.076.057c-.303.232-.598.474-.884.726l-.137.125a16.607 16.607 0 00-2.181 2.392c-.092.123-.187.243-.275.369-.157.223-.305.451-.451.682-.116.182-.228.366-.336.553a14.87 14.87 0 00-.358.643c-.129.248-.247.5-.364.755-.08.175-.167.345-.241.522-.178.426-.336.862-.478 1.305-.049.153-.088.311-.133.466a13.584 13.584 0 00-.359 1.512c-.064.34-.115.683-.158 1.029-.02.159-.042.316-.057.477-.047.504-.078 1.013-.078 1.53s.031 1.026.078 1.531c.015.16.038.317.057.476a15.8 15.8 0 00.518 2.546c.044.153.083.309.131.46.142.444.301.881.479 1.308.073.175.159.342.237.514.118.258.238.516.37.766.112.216.232.426.354.635.11.19.225.378.342.563.145.228.29.453.445.673.092.131.191.256.287.384.644.86 1.368 1.654 2.164 2.373.049.045.098.091.148.135.284.25.575.489.875.72l.087.065a16.493 16.493 0 004.326 2.352c1.752.636 3.633 1 5.602 1 3.732 0 7.167-1.26 9.935-3.357l.075-.056c.303-.234.597-.476.884-.728zM57.5 71.5c-7.18 0-13-5.82-13-13 0-3.975 1.788-7.526 4.599-9.911A12.942 12.942 0 0157.5 45.5c7.18 0 13 5.82 13 13 0 4.42-2.211 8.319-5.582 10.668A12.925 12.925 0 0157.5 71.5z"></path></g><!----></svg>